<svg version="1.1" viewBox="0.0 0.0 983.4698162729659 179.60629921259843" fill="none" stroke="none" stroke-linecap="square" stroke-miterlimit="10" xmlns:xlink="http://www.w3.org/1999/xlink" xmlns="http://www.w3.org/2000/svg"><clipPath id="p.0"><path d="m0 0l983.4698 0l0 179.6063l-983.4698 0l0 -179.6063z" clip-rule="nonzero"/></clipPath><g clip-path="url(#p.0)"><path fill="#000000" fill-opacity="0.0" d="m0 0l983.4698 0l0 179.6063l-983.4698 0z" fill-rule="evenodd"/><path fill="#000000" d="m733.3626 168.9532l82.59845 -74.64567l82.59839 74.64567z" fill-rule="evenodd"/><path stroke="#000000" stroke-width="1.0" stroke-linejoin="round" stroke-linecap="butt" d="m733.3626 168.9532l82.59845 -74.64567l82.59839 74.64567z" fill-rule="evenodd"/><path fill="#ffffff" d="m800.4247 127.069565l-47.84253 53.826767l-2.1732178 -1.9212646l47.84253 -53.826767z" fill-rule="evenodd"/><path fill="#ffffff" d="m810.1251 128.94176l-17.984253 45.543304l-2.7086792 -0.9763794l17.984253 -45.543297z" fill-rule="evenodd"/><path fill="#ffffff" d="m831.58923 126.69161l41.448853 46.645668l2.1732178 -1.8897705l-41.44879 -46.64566z" fill-rule="evenodd"/><path fill="#ffffff" d="m821.76953 128.94176l18.614197 50.4252l2.7086792 -0.9763794l-18.614197 -50.425194z" fill-rule="evenodd"/><path fill="#ffffff" d="m704.4147 133.85303l0 0c0 34.99832 48.769287 63.37007 108.92914 63.37007c60.159912 0 108.92914 -28.37175 108.92914 -63.37007l-31.684998 0c0 17.49916 -34.583374 31.685043 -77.24414 31.685043c-42.660706 0 -77.24408 -14.185883 -77.24408 -31.685043z" fill-rule="evenodd"/><path fill="#000000" d="m792.83386 115.4316l0 0c33.5661 6.2976837 80.93176 2.3251724 118.48328 -9.937065c37.551514 -12.262238 57.24951 -30.18901 49.273804 -44.843098c-7.975647 -14.654083 -41.917603 -22.89822 -84.90436 -20.622364z" fill-rule="evenodd"/><path stroke="#000000" stroke-width="1.0" stroke-linejoin="round" stroke-linecap="butt" d="m792.83386 115.4316l0 0c33.5661 6.2976837 80.93176 2.3251724 118.48328 -9.937065c37.551514 -12.262238 57.24951 -30.18901 49.273804 -44.843098c-7.975647 -14.654083 -41.917603 -22.89822 -84.90436 -20.622364z" fill-rule="evenodd"/><path fill="#000000" d="m875.6365 39.385498l87.62207 0.25196838l0 6.4251976l-87.62207 -0.25196838z" fill-rule="evenodd"/><path fill="#000000" d="m869.2113 64.514435l0 0c0 -13.011307 20.883972 -23.559055 46.64569 -23.559055q24.384949 0 48.769897 -1.0728798q-2.1242676 12.315968 -2.1242676 24.631935l0 0c0 13.011307 -20.883972 23.55906 -46.64563 23.55906l0 0c-25.761719 0 -46.64569 -10.547752 -46.64569 -23.55906z" fill-rule="evenodd"/><path stroke="#000000" stroke-width="1.0" stroke-linejoin="round" stroke-linecap="butt" d="m869.2113 64.514435l0 0c0 -13.011307 20.883972 -23.559055 46.64569 -23.559055q24.384949 0 48.769897 -1.0728798q-2.1242676 12.315968 -2.1242676 24.631935l0 0c0 13.011307 -20.883972 23.55906 -46.64563 23.55906l0 0c-25.761719 0 -46.64569 -10.547752 -46.64569 -23.55906z" fill-rule="evenodd"/><path fill="#000000" d="m842.3204 115.9316l0 0c-33.5661 6.2976837 -80.93176 2.3251724 -118.48328 -9.937065c-37.551514 -12.262238 -57.249573 -30.18901 -49.273865 -44.843098c7.975708 -14.654083 41.917664 -22.89822 84.90442 -20.622364z" fill-rule="evenodd"/><path stroke="#000000" stroke-width="1.0" stroke-linejoin="round" stroke-linecap="butt" d="m842.3204 115.9316l0 0c-33.5661 6.2976837 -80.93176 2.3251724 -118.48328 -9.937065c-37.551514 -12.262238 -57.249573 -30.18901 -49.273865 -44.843098c7.975708 -14.654083 41.917664 -22.89822 84.90442 -20.622364z" fill-rule="evenodd"/><path fill="#000000" d="m759.51776 39.885498l-87.62207 0.25196838l0 6.4251976l87.62207 -0.25196838z" fill-rule="evenodd"/><path fill="#000000" d="m765.94293 65.014435l0 0c0 -13.011307 -20.883972 -23.559055 -46.64569 -23.559055q-24.384949 0 -48.769897 -1.0728798q2.1242065 12.315968 2.1242065 24.631935l0 0c0 13.011307 20.883972 23.55906 46.64569 23.55906l0 0c25.761719 0 46.64569 -10.547752 46.64569 -23.55906z" fill-rule="evenodd"/><path stroke="#000000" stroke-width="1.0" stroke-linejoin="round" stroke-linecap="butt" d="m765.94293 65.014435l0 0c0 -13.011307 -20.883972 -23.559055 -46.64569 -23.559055q-24.384949 0 -48.769897 -1.0728798q2.1242065 12.315968 2.1242065 24.631935l0 0c0 13.011307 20.883972 23.55906 46.64569 23.55906l0 0c25.761719 0 46.64569 -10.547752 46.64569 -23.55906z" fill-rule="evenodd"/><path fill="#ffffff" d="m895.2901 51.440926l90.48816 0.25196838l0 2.8661423l-90.48816 -0.25196838z" fill-rule="evenodd"/><path fill="#ffffff" d="m887.2901 67.440926l90.48816 0.25196838l0 2.8661423l-90.48816 -0.25196838z" fill-rule="evenodd"/><path fill="#ffffff" d="m879.2901 83.440926l90.48816 0.25196838l0 2.8661423l-90.48816 -0.25196838z" fill-rule="evenodd"/><path fill="#ffffff" d="m871.2901 99.440926l90.48816 0.25196838l0 2.8661423l-90.48816 -0.25196838z" fill-rule="evenodd"/><path fill="#000000" d="m858.75494 65.48413l0 0c11.297913 -16.681606 27.40155 -25.494896 35.968506 -19.685036l0 0c4.1139526 2.7899933 5.904175 8.647991 4.9768677 16.285301c-0.92736816 7.637306 -4.496338 16.428314 -9.921753 24.43911l0 0c-11.297913 16.68161 -27.401611 25.494896 -35.968506 19.685036l0 0c-8.566956 -5.80986 -6.3530884 -24.0428 4.9448853 -40.72441z" fill-rule="evenodd"/><path stroke="#000000" stroke-width="1.0" stroke-linejoin="round" stroke-linecap="butt" d="m858.75494 65.48413l0 0c11.297913 -16.681606 27.40155 -25.494896 35.968506 -19.685036l0 0c4.1139526 2.7899933 5.904175 8.647991 4.9768677 16.285301c-0.92736816 7.637306 -4.496338 16.428314 -9.921753 24.43911l0 0c-11.297913 16.68161 -27.401611 25.494896 -35.968506 19.685036l0 0c-8.566956 -5.80986 -6.3530884 -24.0428 4.9448853 -40.72441z" fill-rule="evenodd"/><path fill="#000000" d="m895.2913 47.17323l4.5039673 0l0 11.653542l-4.5039673 0z" fill-rule="evenodd"/><path stroke="#000000" stroke-width="1.0" stroke-linejoin="round" stroke-linecap="butt" d="m895.2913 47.17323l4.5039673 0l0 11.653542l-4.5039673 0z" fill-rule="evenodd"/><path fill="#ffffff" d="m736.78644 49.440926l-90.48822 0.25196838l0 2.8661423l90.48822 -0.25196838z" fill-rule="evenodd"/><path fill="#ffffff" d="m744.78644 65.440926l-90.48822 0.25196838l0 2.8661423l90.48822 -0.25196838z" fill-rule="evenodd"/><path fill="#ffffff" d="m752.78644 81.440926l-90.48822 0.25196838l0 2.8661423l90.48822 -0.25196838z" fill-rule="evenodd"/><path fill="#ffffff" d="m760.78644 97.440926l-90.48822 0.25196838l0 2.8661423l90.48822 -0.25196838z" fill-rule="evenodd"/><path fill="#000000" d="m773.3216 63.484135l0 0c-11.297913 -16.68161 -27.40155 -25.4949 -35.968506 -19.68504l0 0c-4.1140137 2.7899933 -5.904236 8.647991 -4.9768677 16.285301c0.9273071 7.637306 4.496277 16.428314 9.921753 24.43911l0 0c11.297913 16.68161 27.40155 25.494896 35.968506 19.685036l0 0c8.566895 -5.80986 6.3530273 -24.0428 -4.9448853 -40.724407z" fill-rule="evenodd"/><path stroke="#000000" stroke-width="1.0" stroke-linejoin="round" stroke-linecap="butt" d="m773.3216 63.484135l0 0c-11.297913 -16.68161 -27.40155 -25.4949 -35.968506 -19.68504l0 0c-4.1140137 2.7899933 -5.904236 8.647991 -4.9768677 16.285301c0.9273071 7.637306 4.496277 16.428314 9.921753 24.43911l0 0c11.297913 16.68161 27.40155 25.494896 35.968506 19.685036l0 0c8.566895 -5.80986 6.3530273 -24.0428 -4.9448853 -40.724407z" fill-rule="evenodd"/><path fill="#000000" d="m736.78516 45.17323l-4.5039062 0l0 11.653542l4.5039062 0z" fill-rule="evenodd"/><path stroke="#000000" stroke-width="1.0" stroke-linejoin="round" stroke-linecap="butt" d="m736.78516 45.17323l-4.5039062 0l0 11.653542l4.5039062 0z" fill-rule="evenodd"/><path fill="#ffffff" d="m770.28015 120.3207l47.905334 -43.205956l17.612183 -1.2742462l-64.53546 58.204727z" fill-rule="evenodd"/><path fill="#ffffff" d="m812.7777 80.42796l46.221985 -3.10952l10.250793 7.1909714l-62.26776 4.1889725z" fill-rule="evenodd"/><path fill="#ffffff" d="m842.8366 66.13976l0 0c8.697388 0 15.748047 4.0470657 15.748047 9.039368q0 4.5196915 0 9.039375q-7.8740234 0 -15.748047 0l0 0c-8.697388 0 -15.748047 -4.0470657 -15.748047 -9.039375l0 0c0 -4.992302 7.050659 -9.039368 15.748047 -9.039368z" fill-rule="evenodd"/><path stroke="#ffffff" stroke-width="1.0" stroke-linejoin="round" stroke-linecap="butt" d="m842.8366 66.13976l0 0c8.697388 0 15.748047 4.0470657 15.748047 9.039368q0 4.5196915 0 9.039375q-7.8740234 0 -15.748047 0l0 0c-8.697388 0 -15.748047 -4.0470657 -15.748047 -9.039375l0 0c0 -4.992302 7.050659 -9.039368 15.748047 -9.039368z" fill-rule="evenodd"/><path fill="#000000" fill-opacity="0.0" d="m1.8057743 -1.2939633l756.18896 0l0 136.85039l-756.18896 0z" fill-rule="evenodd"/><path fill="#000000" d="m40.0714 39.287914l70.734375 0l-4.21875 19.890625l-42.0 0l-3.4374962 16.171879l35.874996 0l-3.96875 18.6875l-35.874996 0l-8.046875 37.828125l-28.734375 0l19.671875 -92.578125zm86.07335 0l76.671875 0l-4.1875 19.765625l-48.0 0l-3.140625 14.718754l44.515625 0l-4.0 18.875l-44.515625 0l-3.890625 18.25l49.375 0l-4.453125 20.96875l-78.046875 0l19.671875 -92.578125zm93.83414 0l42.5 0q12.578125 0 19.59375 3.421875q7.015625 3.40625 10.703125 9.78125q3.6875 6.375 4.15625 14.843754q0.484375 8.453125 -1.53125 17.921875q-3.15625 14.84375 -8.265625 23.03125q-5.109375 8.171875 -12.296875 13.703125q-7.171875 5.515625 -14.4375 7.34375q-9.953125 2.53125 -17.59375 2.53125l-42.5 0l19.671875 -92.578125zm24.15625 20.96875l-10.75 50.57813l7.015625 0q8.96875 0 13.171875 -1.984375q4.21875 -1.984375 7.421875 -6.9375q3.203125 -4.96875 5.5625 -16.078125q3.125 -14.71875 -0.53125 -20.140625q-3.640625 -5.437504 -14.75 -5.437504l-7.140625 0zm76.00183 -20.96875l76.671875 0l-4.1875 19.765625l-48.0 0l-3.140625 14.718754l44.515625 0l-4.0 18.875l-44.515625 0l-3.890625 18.25l49.375 0l-4.453125 20.96875l-78.046875 0l19.671875 -92.578125zm74.16226 92.578125l19.671875 -92.578125l47.6875 0q13.265625 0 19.796875 2.28125q6.53125 2.265625 9.5 8.421875q2.984375 6.15625 1.109375 15.000004q-1.640625 7.703125 -6.109375 13.296875q-4.46875 5.578125 -10.953125 9.0625q-4.125 2.203125 -10.8125 3.65625q4.75 1.703125 6.71875 3.40625q1.34375 1.140625 3.546875 4.875q2.21875 3.71875 2.78125 5.734375l8.125 26.84375l-32.328125 0l-9.265625 -28.296875q-1.734375 -5.484375 -3.65625 -7.125q-2.640625 -2.15625 -6.5625 -2.15625l-2.53125 0l-7.984375 37.578125l-28.734375 0zm40.4375 -55.0625l12.0625 0q1.96875 0 7.84375 -1.265625q2.96875 -0.5625 5.265625 -2.890625q2.296875 -2.34375 2.953125 -5.375q0.953125 -4.484379 -1.390625 -6.890629q-2.328125 -2.40625 -10.15625 -2.40625l-12.578125 0l-4.0 18.828129zm120.0018 39.78125l-32.59375 0l-7.734375 15.28125l-29.234375 0l54.46875 -92.578125l31.1875 0l15.125 92.578125l-29.921875 0l-1.296875 -15.28125zm-1.75 -20.015625l-3.15625 -33.281254l-17.25 33.281254l20.40625 0zm61.798706 -57.281254l28.609375 0l-14.828125 69.78125l44.640625 0l-4.84375 22.796875l-73.25 0l19.671875 -92.578125z" fill-rule="nonzero"/><path fill="#000000" fill-opacity="0.0" d="m30.013493 39.01293l630.984 0" fill-rule="evenodd"/><path stroke="#ffffff" stroke-width="1.0" stroke-linejoin="round" stroke-linecap="butt" d="m30.013493 39.01293l630.984 0" fill-rule="evenodd"/><path fill="#000000" fill-opacity="0.0" d="m30.013493 42.852932l630.984 0" fill-rule="evenodd"/><path stroke="#ffffff" stroke-width="1.0" stroke-linejoin="round" stroke-linecap="butt" d="m30.013493 42.852932l630.984 0" fill-rule="evenodd"/><path fill="#000000" fill-opacity="0.0" d="m30.013493 46.692932l630.984 0" fill-rule="evenodd"/><path stroke="#ffffff" stroke-width="1.0" stroke-linejoin="round" stroke-linecap="butt" d="m30.013493 46.692932l630.984 0" fill-rule="evenodd"/><path fill="#000000" fill-opacity="0.0" d="m30.013493 50.532932l630.984 0" fill-rule="evenodd"/><path stroke="#ffffff" stroke-width="1.0" stroke-linejoin="round" stroke-linecap="butt" d="m30.013493 50.532932l630.984 0" fill-rule="evenodd"/><path fill="#000000" fill-opacity="0.0" d="m30.013493 54.372932l630.984 0" fill-rule="evenodd"/><path stroke="#ffffff" stroke-width="1.0" stroke-linejoin="round" stroke-linecap="butt" d="m30.013493 54.372932l630.984 0" fill-rule="evenodd"/><path fill="#000000" fill-opacity="0.0" d="m30.013493 58.212933l630.984 0" fill-rule="evenodd"/><path stroke="#ffffff" stroke-width="1.0" stroke-linejoin="round" stroke-linecap="butt" d="m30.013493 58.212933l630.984 0" fill-rule="evenodd"/><path fill="#000000" fill-opacity="0.0" d="m30.013493 62.052933l630.984 0" fill-rule="evenodd"/><path stroke="#ffffff" stroke-width="1.0" stroke-linejoin="round" stroke-linecap="butt" d="m30.013493 62.052933l630.984 0" fill-rule="evenodd"/><path fill="#000000" fill-opacity="0.0" d="m30.013493 65.89293l630.984 0" fill-rule="evenodd"/><path stroke="#ffffff" stroke-width="1.0" stroke-linejoin="round" stroke-linecap="butt" d="m30.013493 65.89293l630.984 0" fill-rule="evenodd"/><path fill="#000000" fill-opacity="0.0" d="m22.013493 69.44l630.984 0" fill-rule="evenodd"/><path stroke="#ffffff" stroke-width="1.0" stroke-linejoin="round" stroke-linecap="butt" d="m22.013493 69.44l630.984 0" fill-rule="evenodd"/><path fill="#000000" fill-opacity="0.0" d="m22.013493 73.28l630.984 0" fill-rule="evenodd"/><path stroke="#ffffff" stroke-width="1.0" stroke-linejoin="round" stroke-linecap="butt" d="m22.013493 73.28l630.984 0" fill-rule="evenodd"/><path fill="#000000" fill-opacity="0.0" d="m22.013493 77.12l630.984 0" fill-rule="evenodd"/><path stroke="#ffffff" stroke-width="1.0" stroke-linejoin="round" stroke-linecap="butt" d="m22.013493 77.12l630.984 0" fill-rule="evenodd"/><path fill="#000000" fill-opacity="0.0" d="m22.013493 80.96l630.984 0" fill-rule="evenodd"/><path stroke="#ffffff" stroke-width="1.0" stroke-linejoin="round" stroke-linecap="butt" d="m22.013493 80.96l630.984 0" fill-rule="evenodd"/><path fill="#000000" fill-opacity="0.0" d="m22.013493 84.8l630.984 0" fill-rule="evenodd"/><path stroke="#ffffff" stroke-width="1.0" stroke-linejoin="round" stroke-linecap="butt" d="m22.013493 84.8l630.984 0" fill-rule="evenodd"/><path fill="#000000" fill-opacity="0.0" d="m22.013493 88.64l630.984 0" fill-rule="evenodd"/><path stroke="#ffffff" stroke-width="1.0" stroke-linejoin="round" stroke-linecap="butt" d="m22.013493 88.64l630.984 0" fill-rule="evenodd"/><path fill="#000000" fill-opacity="0.0" d="m22.013493 92.48l630.984 0" fill-rule="evenodd"/><path stroke="#ffffff" stroke-width="1.0" stroke-linejoin="round" stroke-linecap="butt" d="m22.013493 92.48l630.984 0" fill-rule="evenodd"/><path fill="#000000" fill-opacity="0.0" d="m22.013493 96.32l630.984 0" fill-rule="evenodd"/><path stroke="#ffffff" stroke-width="1.0" stroke-linejoin="round" stroke-linecap="butt" d="m22.013493 96.32l630.984 0" fill-rule="evenodd"/><path fill="#000000" fill-opacity="0.0" d="m12.00642 100.18252l667.97394 0" fill-rule="evenodd"/><path stroke="#ffffff" stroke-width="1.0" stroke-linejoin="round" stroke-linecap="butt" d="m12.00642 100.18252l667.97394 0" fill-rule="evenodd"/><path fill="#000000" fill-opacity="0.0" d="m12.00642 104.02252l667.97394 0" fill-rule="evenodd"/><path stroke="#ffffff" stroke-width="1.0" stroke-linejoin="round" stroke-linecap="butt" d="m12.00642 104.02252l667.97394 0" fill-rule="evenodd"/><path fill="#000000" fill-opacity="0.0" d="m12.00642 107.86252l667.97394 0" fill-rule="evenodd"/><path stroke="#ffffff" stroke-width="1.0" stroke-linejoin="round" stroke-linecap="butt" d="m12.00642 107.86252l667.97394 0" fill-rule="evenodd"/><path fill="#000000" fill-opacity="0.0" d="m12.00642 111.70252l667.97394 0" fill-rule="evenodd"/><path stroke="#ffffff" stroke-width="1.0" stroke-linejoin="round" stroke-linecap="butt" d="m12.00642 111.70252l667.97394 0" fill-rule="evenodd"/><path fill="#000000" fill-opacity="0.0" d="m12.00642 115.54252l667.97394 0" fill-rule="evenodd"/><path stroke="#ffffff" stroke-width="1.0" stroke-linejoin="round" stroke-linecap="butt" d="m12.00642 115.54252l667.97394 0" fill-rule="evenodd"/><path fill="#000000" fill-opacity="0.0" d="m12.00642 119.38252l667.97394 0" fill-rule="evenodd"/><path stroke="#ffffff" stroke-width="1.0" stroke-linejoin="round" stroke-linecap="butt" d="m12.00642 119.38252l667.97394 0" fill-rule="evenodd"/><path fill="#000000" fill-opacity="0.0" d="m12.00642 123.22252l667.97394 0" fill-rule="evenodd"/><path stroke="#ffffff" stroke-width="1.0" stroke-linejoin="round" stroke-linecap="butt" d="m12.00642 123.22252l667.97394 0" fill-rule="evenodd"/><path fill="#000000" fill-opacity="0.0" d="m12.00642 127.06252l667.97394 0" fill-rule="evenodd"/><path stroke="#ffffff" stroke-width="1.0" stroke-linejoin="round" stroke-linecap="butt" d="m12.00642 127.06252l667.97394 0" fill-rule="evenodd"/><path fill="#000000" fill-opacity="0.0" d="m13.50642 130.88l667.9685 0" fill-rule="evenodd"/><path stroke="#ffffff" stroke-width="1.0" stroke-linejoin="round" stroke-linecap="butt" d="m13.50642 130.88l667.9685 0" fill-rule="evenodd"/><path fill="#000000" fill-opacity="0.0" d="m11.0078745 135.05643l616.50397 0l0 30.425201l-616.50397 0z" fill-rule="evenodd"/><path fill="#000000" d="m20.054749 148.61705l4.3125 0l3.015625 9.609375l2.953125 -9.609375l4.1875 0l-4.953125 13.359375l-4.46875 0l-5.046875 -13.359375zm18.964554 6.8125l-3.546875 -0.375q0.203125 -0.921875 0.578125 -1.453125q0.375 -0.53125 1.09375 -0.921875q0.515625 -0.28125 1.40625 -0.4375q0.890625 -0.15625 1.921875 -0.15625q1.671875 0 2.671875 0.1875q1.015625 0.1875 1.703125 0.78125q0.46875 0.40625 0.734375 1.15625q0.28125 0.75 0.28125 1.4375l0 4.265625q0 0.6875 0.078125 1.078125q0.09375 0.390625 0.390625 0.984375l-3.484375 0q-0.21875 -0.375 -0.28125 -0.5625q-0.0625 -0.203125 -0.125 -0.625q-0.71875 0.703125 -1.4375 1.0q-0.984375 0.40625 -2.296875 0.40625q-1.734375 0 -2.625 -0.796875q-0.890625 -0.8125 -0.890625 -1.984375q0 -1.09375 0.640625 -1.8125q0.640625 -0.703125 2.390625 -1.046875q2.078125 -0.421875 2.6875 -0.59375q0.625 -0.171875 1.328125 -0.4375q0 -0.6875 -0.28125 -0.953125q-0.28125 -0.28125 -1.0 -0.28125q-0.90625 0 -1.359375 0.296875q-0.359375 0.21875 -0.578125 0.84375zm3.21875 1.953125q-0.765625 0.28125 -1.59375 0.484375q-1.140625 0.296875 -1.4375 0.59375q-0.3125 0.296875 -0.3125 0.6875q0 0.4375 0.296875 0.71875q0.3125 0.265625 0.90625 0.265625q0.625 0 1.15625 -0.296875q0.53125 -0.296875 0.75 -0.734375q0.234375 -0.4375 0.234375 -1.125l0 -0.59375zm5.849823 -5.078125l3.453125 0l0 1.578125q0.765625 -0.96875 1.5625 -1.375q0.796875 -0.421875 1.9375 -0.421875q1.53125 0 2.390625 0.921875q0.875 0.90625 0.875 2.8125l0 6.15625l-3.71875 0l0 -5.3125q0 -0.921875 -0.34375 -1.296875q-0.328125 -0.375 -0.9375 -0.375q-0.671875 0 -1.09375 0.515625q-0.421875 0.5 -0.421875 1.828125l0 4.640625l-3.703125 0l0 -9.671875zm18.899734 -3.6875l4.140625 0l0 10.078125l6.4375 0l0 3.28125l-10.578125 0l0 -13.359375zm12.334198 0l3.71875 0l0 2.53125l-3.71875 0l0 -2.53125zm0 3.6875l3.71875 0l0 9.671875l-3.71875 0l0 -9.671875zm6.087677 0l3.453125 0l0 1.578125q0.765625 -0.96875 1.5625 -1.375q0.796875 -0.421875 1.9375 -0.421875q1.53125 0 2.390625 0.921875q0.875 0.90625 0.875 2.8125l0 6.15625l-3.71875 0l0 -5.3125q0 -0.921875 -0.34375 -1.296875q-0.328125 -0.375 -0.9375 -0.375q-0.671875 0 -1.09375 0.515625q-0.421875 0.5 -0.421875 1.828125l0 4.640625l-3.703125 0l0 -9.671875zm23.177948 5.75l-7.4375 0q0.109375 0.890625 0.484375 1.328125q0.546875 0.640625 1.40625 0.640625q0.546875 0 1.03125 -0.28125q0.3125 -0.171875 0.65625 -0.609375l3.65625 0.34375q-0.84375 1.453125 -2.03125 2.09375q-1.1875 0.625 -3.390625 0.625q-1.921875 0 -3.03125 -0.53125q-1.09375 -0.546875 -1.828125 -1.71875q-0.71875 -1.1875 -0.71875 -2.78125q0 -2.28125 1.453125 -3.671875q1.453125 -1.40625 4.015625 -1.40625q2.078125 0 3.28125 0.625q1.203125 0.625 1.828125 1.828125q0.625 1.1875 0.625 3.09375l0 0.421875zm-3.765625 -1.765625q-0.109375 -1.078125 -0.578125 -1.546875q-0.46875 -0.46875 -1.234375 -0.46875q-0.890625 0 -1.421875 0.703125q-0.328125 0.4375 -0.421875 1.3125l3.65625 0zm4.818573 3.015625l3.671875 -0.359375q0.234375 0.65625 0.640625 0.953125q0.40625 0.28125 1.09375 0.28125q0.75 0 1.15625 -0.328125q0.3125 -0.234375 0.3125 -0.59375q0 -0.390625 -0.40625 -0.609375q-0.3125 -0.15625 -1.59375 -0.390625q-1.9375 -0.328125 -2.6875 -0.609375q-0.75 -0.296875 -1.265625 -0.984375q-0.515625 -0.6875 -0.515625 -1.5625q0 -0.953125 0.546875 -1.640625q0.5625 -0.6875 1.53125 -1.03125q0.984375 -0.34375 2.625 -0.34375q1.734375 0 2.546875 0.265625q0.828125 0.265625 1.375 0.828125q0.5625 0.546875 0.921875 1.484375l-3.515625 0.359375q-0.140625 -0.46875 -0.453125 -0.6875q-0.4375 -0.296875 -1.0625 -0.296875q-0.625 0 -0.921875 0.234375q-0.28125 0.21875 -0.28125 0.53125q0 0.359375 0.375 0.546875q0.359375 0.171875 1.578125 0.328125q1.84375 0.203125 2.75 0.578125q0.90625 0.375 1.375 1.0625q0.484375 0.6875 0.484375 1.515625q0 0.84375 -0.515625 1.640625q-0.5 0.796875 -1.59375 1.265625q-1.078125 0.46875 -2.953125 0.46875q-2.65625 0 -3.78125 -0.75q-1.125 -0.765625 -1.4375 -2.15625z" fill-rule="nonzero"/><path fill="#000000" d="m147.77681 162.6483l-5.265625 -3.71875l-5.265625 3.71875l2.078125 -6.015625l-5.203125 -3.71875l6.46875 0l1.921875 -6.078125l1.9375 6.078125l6.453125 0l-5.203125 3.71875l2.078125 6.015625z" fill-rule="nonzero"/><path fill="#000000" d="m165.78288 148.61705l5.421875 0l2.09375 8.125l2.09375 -8.125l5.40625 0l0 13.359375l-3.375 0l0 -10.1875l-2.609375 10.1875l-3.046875 0l-2.609375 -10.1875l0 10.1875l-3.375 0l0 -13.359375zm16.952408 8.546875q0 -2.203125 1.484375 -3.640625q1.5 -1.4375 4.03125 -1.4375q2.90625 0 4.390625 1.6875q1.203125 1.359375 1.203125 3.34375q0 2.234375 -1.484375 3.65625q-1.484375 1.421875 -4.09375 1.421875q-2.328125 0 -3.765625 -1.1875q-1.765625 -1.46875 -1.765625 -3.84375zm3.703125 0q0 1.28125 0.515625 1.90625q0.53125 0.625 1.328125 0.625q0.796875 0 1.3125 -0.609375q0.515625 -0.609375 0.515625 -1.96875q0 -1.25 -0.515625 -1.859375q-0.515625 -0.625 -1.28125 -0.625q-0.8125 0 -1.34375 0.625q-0.53125 0.625 -0.53125 1.90625zm8.084198 -4.859375l3.859375 0l1.875 6.125l1.953125 -6.125l3.734375 0l-4.109375 9.671875l-3.28125 0l-4.03125 -9.671875zm12.630356 -3.6875l3.71875 0l0 2.53125l-3.71875 0l0 -2.53125zm0 3.6875l3.71875 0l0 9.671875l-3.71875 0l0 -9.671875zm6.087677 0l3.453125 0l0 1.578125q0.765625 -0.96875 1.5625 -1.375q0.796875 -0.421875 1.9375 -0.421875q1.53125 0 2.390625 0.921875q0.875 0.90625 0.875 2.8125l0 6.15625l-3.71875 0l0 -5.3125q0 -0.921875 -0.34375 -1.296875q-0.328125 -0.375 -0.9375 -0.375q-0.671875 0 -1.09375 0.515625q-0.421875 0.5 -0.421875 1.828125l0 4.640625l-3.703125 0l0 -9.671875zm19.177948 0l3.46875 0l0 9.140625l0 0.421875q0 0.90625 -0.390625 1.734375q-0.375 0.828125 -1.015625 1.328125q-0.640625 0.515625 -1.640625 0.734375q-0.984375 0.234375 -2.265625 0.234375q-2.90625 0 -4.0 -0.875q-1.09375 -0.875 -1.09375 -2.34375q0 -0.171875 0.03125 -0.484375l3.59375 0.40625q0.140625 0.5 0.421875 0.703125q0.40625 0.28125 1.03125 0.28125q0.796875 0 1.1875 -0.4375q0.40625 -0.421875 0.40625 -1.484375l0 -1.46875q-0.546875 0.640625 -1.09375 0.9375q-0.859375 0.453125 -1.859375 0.453125q-1.9375 0 -3.125 -1.703125q-0.84375 -1.1875 -0.84375 -3.171875q0 -2.265625 1.078125 -3.4375q1.09375 -1.1875 2.875 -1.1875q1.125 0 1.859375 0.390625q0.734375 0.375 1.375 1.25l0 -1.421875zm-3.5 4.6875q0 1.046875 0.4375 1.5625q0.453125 0.5 1.1875 0.5q0.6875 0 1.15625 -0.515625q0.46875 -0.53125 0.46875 -1.59375q0 -1.046875 -0.5 -1.609375q-0.484375 -0.5625 -1.1875 -0.5625q-0.71875 0 -1.140625 0.515625q-0.421875 0.515625 -0.421875 1.703125z" fill-rule="nonzero"/><path fill="#000000" d="m264.212 162.6483l-5.265625 -3.71875l-5.2656403 3.71875l2.078125 -6.015625l-5.203125 -3.71875l6.4687653 0l1.921875 -6.078125l1.9375 6.078125l6.4530945 0l-5.2030945 3.71875l2.078125 6.015625z" fill-rule="nonzero"/><path fill="#000000" d="m281.53055 157.55455l3.9375 -0.25q0.125 0.96875 0.515625 1.46875q0.640625 0.8125 1.828125 0.8125q0.875 0 1.34375 -0.40625q0.484375 -0.421875 0.484375 -0.96875q0 -0.53125 -0.453125 -0.9375q-0.453125 -0.40625 -2.109375 -0.765625q-2.71875 -0.609375 -3.875 -1.625q-1.171875 -1.015625 -1.171875 -2.578125q0 -1.03125 0.59375 -1.9375q0.609375 -0.921875 1.796875 -1.4375q1.203125 -0.53125 3.296875 -0.53125q2.546875 0 3.890625 0.953125q1.34375 0.953125 1.609375 3.03125l-3.890625 0.21875q-0.15625 -0.90625 -0.65625 -1.3125q-0.5 -0.40625 -1.375 -0.40625q-0.71875 0 -1.078125 0.3125q-0.359375 0.296875 -0.359375 0.734375q0 0.3125 0.296875 0.578125q0.296875 0.265625 1.390625 0.484375q2.703125 0.578125 3.875 1.1875q1.171875 0.59375 1.703125 1.484375q0.53125 0.875 0.53125 1.96875q0 1.28125 -0.71875 2.375q-0.703125 1.078125 -1.984375 1.640625q-1.265625 0.5625 -3.21875 0.5625q-3.40625 0 -4.71875 -1.3125q-1.3125 -1.3125 -1.484375 -3.34375zm18.426056 -8.9375l0 3.6875l2.046875 0l0 2.703125l-2.046875 0l0 3.4375q0 0.609375 0.125 0.8125q0.171875 0.3125 0.625 0.3125q0.421875 0 1.15625 -0.234375l0.265625 2.5625q-1.375 0.296875 -2.5625 0.296875q-1.390625 0 -2.046875 -0.34375q-0.65625 -0.359375 -0.96875 -1.078125q-0.3125 -0.734375 -0.3125 -2.359375l0 -3.40625l-1.359375 0l0 -2.703125l1.359375 0l0 -1.78125l3.71875 -1.90625zm3.358673 8.546875q0 -2.203125 1.484375 -3.640625q1.5 -1.4375 4.03125 -1.4375q2.90625 0 4.390625 1.6875q1.203125 1.359375 1.203125 3.34375q0 2.234375 -1.484375 3.65625q-1.484375 1.421875 -4.09375 1.421875q-2.328125 0 -3.765625 -1.1875q-1.765625 -1.46875 -1.765625 -3.84375zm3.703125 0q0 1.28125 0.515625 1.90625q0.53125 0.625 1.328125 0.625q0.796875 0 1.3125 -0.609375q0.515625 -0.609375 0.515625 -1.96875q0 -1.25 -0.515625 -1.859375q-0.515625 -0.625 -1.28125 -0.625q-0.8125 0 -1.34375 0.625q-0.53125 0.625 -0.53125 1.90625zm9.224823 -4.859375l3.46875 0l0 1.578125q0.5 -1.03125 1.03125 -1.40625q0.53125 -0.390625 1.328125 -0.390625q0.8125 0 1.78125 0.515625l-1.140625 2.640625q-0.65625 -0.28125 -1.03125 -0.28125q-0.734375 0 -1.140625 0.609375q-0.578125 0.84375 -0.578125 3.15625l0 3.25l-3.71875 0l0 -9.671875zm11.624268 3.125l-3.546875 -0.375q0.203125 -0.921875 0.578125 -1.453125q0.375 -0.53125 1.09375 -0.921875q0.515625 -0.28125 1.40625 -0.4375q0.890625 -0.15625 1.921875 -0.15625q1.671875 0 2.671875 0.1875q1.015625 0.1875 1.703125 0.78125q0.46875 0.40625 0.734375 1.15625q0.28125 0.75 0.28125 1.4375l0 4.265625q0 0.6875 0.078125 1.078125q0.09375 0.390625 0.390625 0.984375l-3.484375 0q-0.21875 -0.375 -0.28125 -0.5625q-0.0625 -0.203125 -0.125 -0.625q-0.71875 0.703125 -1.4375 1.0q-0.984375 0.40625 -2.296875 0.40625q-1.734375 0 -2.625 -0.796875q-0.890625 -0.8125 -0.890625 -1.984375q0 -1.09375 0.640625 -1.8125q0.640625 -0.703125 2.390625 -1.046875q2.078125 -0.421875 2.6875 -0.59375q0.625 -0.171875 1.328125 -0.4375q0 -0.6875 -0.28125 -0.953125q-0.28125 -0.28125 -1.0 -0.28125q-0.90625 0 -1.359375 0.296875q-0.359375 0.21875 -0.578125 0.84375zm3.21875 1.953125q-0.765625 0.28125 -1.59375 0.484375q-1.140625 0.296875 -1.4375 0.59375q-0.3125 0.296875 -0.3125 0.6875q0 0.4375 0.296875 0.71875q0.3125 0.265625 0.90625 0.265625q0.625 0 1.15625 -0.296875q0.53125 -0.296875 0.75 -0.734375q0.234375 -0.4375 0.234375 -1.125l0 -0.59375zm12.5842285 -5.078125l3.46875 0l0 9.140625l0 0.421875q0 0.90625 -0.390625 1.734375q-0.375 0.828125 -1.015625 1.328125q-0.640625 0.515625 -1.640625 0.734375q-0.984375 0.234375 -2.265625 0.234375q-2.90625 0 -4.0 -0.875q-1.09375 -0.875 -1.09375 -2.34375q0 -0.171875 0.03125 -0.484375l3.59375 0.40625q0.140625 0.5 0.421875 0.703125q0.40625 0.28125 1.03125 0.28125q0.796875 0 1.1875 -0.4375q0.40625 -0.421875 0.40625 -1.484375l0 -1.46875q-0.546875 0.640625 -1.09375 0.9375q-0.859375 0.453125 -1.859375 0.453125q-1.9375 0 -3.125 -1.703125q-0.84375 -1.1875 -0.84375 -3.171875q0 -2.265625 1.078125 -3.4375q1.09375 -1.1875 2.875 -1.1875q1.125 0 1.859375 0.390625q0.734375 0.375 1.375 1.25l0 -1.421875zm-3.5 4.6875q0 1.046875 0.4375 1.5625q0.453125 0.5 1.1875 0.5q0.6875 0 1.15625 -0.515625q0.46875 -0.53125 0.46875 -1.59375q0 -1.046875 -0.5 -1.609375q-0.484375 -0.5625 -1.1875 -0.5625q-0.71875 0 -1.140625 0.515625q-0.421875 0.515625 -0.421875 1.703125zm19.943542 1.0625l-7.4375 0q0.109375 0.890625 0.484375 1.328125q0.546875 0.640625 1.40625 0.640625q0.546875 0 1.03125 -0.28125q0.3125 -0.171875 0.65625 -0.609375l3.65625 0.34375q-0.84375 1.453125 -2.03125 2.09375q-1.1875 0.625 -3.390625 0.625q-1.921875 0 -3.03125 -0.53125q-1.09375 -0.546875 -1.828125 -1.71875q-0.71875 -1.1875 -0.71875 -2.78125q0 -2.28125 1.453125 -3.671875q1.453125 -1.40625 4.015625 -1.40625q2.078125 0 3.28125 0.625q1.203125 0.625 1.828125 1.828125q0.625 1.1875 0.625 3.09375l0 0.421875zm-3.765625 -1.765625q-0.109375 -1.078125 -0.578125 -1.546875q-0.46875 -0.46875 -1.234375 -0.46875q-0.890625 0 -1.421875 0.703125q-0.328125 0.4375 -0.421875 1.3125l3.65625 0z" fill-rule="nonzero"/><path fill="#000000" d="m387.90744 162.6483l-5.265625 -3.71875l-5.265625 3.71875l2.078125 -6.015625l-5.203125 -3.71875l6.46875 0l1.921875 -6.078125l1.9375 6.078125l6.453125 0l-5.203125 3.71875l2.078125 6.015625z" fill-rule="nonzero"/><path fill="#000000" d="m405.226 157.55455l3.9375 -0.25q0.125 0.96875 0.515625 1.46875q0.640625 0.8125 1.828125 0.8125q0.875 0 1.34375 -0.40625q0.484375 -0.421875 0.484375 -0.96875q0 -0.53125 -0.453125 -0.9375q-0.453125 -0.40625 -2.109375 -0.765625q-2.71875 -0.609375 -3.875 -1.625q-1.171875 -1.015625 -1.171875 -2.578125q0 -1.03125 0.59375 -1.9375q0.609375 -0.921875 1.796875 -1.4375q1.203125 -0.53125 3.296875 -0.53125q2.546875 0 3.890625 0.953125q1.34375 0.953125 1.609375 3.03125l-3.890625 0.21875q-0.15625 -0.90625 -0.65625 -1.3125q-0.5 -0.40625 -1.375 -0.40625q-0.71875 0 -1.078125 0.3125q-0.359375 0.296875 -0.359375 0.734375q0 0.3125 0.296875 0.578125q0.296875 0.265625 1.390625 0.484375q2.703125 0.578125 3.875 1.1875q1.171875 0.59375 1.703125 1.484375q0.53125 0.875 0.53125 1.96875q0 1.28125 -0.71875 2.375q-0.703125 1.078125 -1.984375 1.640625q-1.265625 0.5625 -3.21875 0.5625q-3.40625 0 -4.71875 -1.3125q-1.3125 -1.3125 -1.484375 -3.34375zm13.972961 8.109375l0 -13.359375l3.46875 0l0 1.421875q0.71875 -0.890625 1.328125 -1.21875q0.796875 -0.421875 1.78125 -0.421875q1.953125 0 3.0 1.484375q1.0625 1.484375 1.0625 3.671875q0 2.40625 -1.15625 3.6875q-1.15625 1.265625 -2.921875 1.265625q-0.859375 0 -1.5625 -0.28125q-0.703125 -0.296875 -1.265625 -0.875l0 4.625l-3.734375 0zm3.71875 -8.5q0 1.15625 0.484375 1.71875q0.484375 0.546875 1.21875 0.546875q0.640625 0 1.078125 -0.53125q0.4375 -0.53125 0.4375 -1.8125q0 -1.171875 -0.453125 -1.71875q-0.453125 -0.5625 -1.109375 -0.5625q-0.71875 0 -1.1875 0.5625q-0.46875 0.546875 -0.46875 1.796875zm19.443542 0.890625l-7.4375 0q0.109375 0.890625 0.484375 1.328125q0.546875 0.640625 1.40625 0.640625q0.546875 0 1.03125 -0.28125q0.3125 -0.171875 0.65625 -0.609375l3.65625 0.34375q-0.84375 1.453125 -2.03125 2.09375q-1.1875 0.625 -3.390625 0.625q-1.921875 0 -3.03125 -0.53125q-1.09375 -0.546875 -1.828125 -1.71875q-0.71875 -1.1875 -0.71875 -2.78125q0 -2.28125 1.453125 -3.671875q1.453125 -1.40625 4.015625 -1.40625q2.078125 0 3.28125 0.625q1.203125 0.625 1.828125 1.828125q0.625 1.1875 0.625 3.09375l0 0.421875zm-3.765625 -1.765625q-0.109375 -1.078125 -0.578125 -1.546875q-0.46875 -0.46875 -1.234375 -0.46875q-0.890625 0 -1.421875 0.703125q-0.328125 0.4375 -0.421875 1.3125l3.65625 0zm12.6779785 1.90625l3.53125 0.40625q-0.296875 1.09375 -0.96875 1.90625q-0.65625 0.796875 -1.6875 1.25q-1.03125 0.453125 -2.625 0.453125q-1.546875 0 -2.578125 -0.28125q-1.015625 -0.296875 -1.75 -0.9375q-0.734375 -0.640625 -1.15625 -1.5q-0.421875 -0.875 -0.421875 -2.3125q0 -1.484375 0.515625 -2.484375q0.375 -0.71875 1.015625 -1.296875q0.640625 -0.59375 1.328125 -0.875q1.09375 -0.4375 2.78125 -0.4375q2.375 0 3.609375 0.84375q1.25 0.84375 1.75 2.484375l-3.484375 0.453125q-0.171875 -0.609375 -0.609375 -0.921875q-0.421875 -0.3125 -1.15625 -0.3125q-0.921875 0 -1.5 0.65625q-0.5625 0.65625 -0.5625 2.0q0 1.1875 0.5625 1.8125q0.578125 0.609375 1.453125 0.609375q0.71875 0 1.21875 -0.359375q0.5 -0.375 0.734375 -1.15625zm5.3654175 -9.578125l3.71875 0l0 2.53125l-3.71875 0l0 -2.53125zm0 3.6875l3.71875 0l0 9.671875l-3.71875 0l0 -9.671875zm9.4627075 3.125l-3.546875 -0.375q0.203125 -0.921875 0.578125 -1.453125q0.375 -0.53125 1.09375 -0.921875q0.515625 -0.28125 1.40625 -0.4375q0.890625 -0.15625 1.921875 -0.15625q1.671875 0 2.671875 0.1875q1.015625 0.1875 1.703125 0.78125q0.46875 0.40625 0.734375 1.15625q0.28125 0.75 0.28125 1.4375l0 4.265625q0 0.6875 0.078125 1.078125q0.09375 0.390625 0.390625 0.984375l-3.484375 0q-0.21875 -0.375 -0.28125 -0.5625q-0.0625 -0.203125 -0.125 -0.625q-0.71875 0.703125 -1.4375 1.0q-0.984375 0.40625 -2.296875 0.40625q-1.734375 0 -2.625 -0.796875q-0.890625 -0.8125 -0.890625 -1.984375q0 -1.09375 0.640625 -1.8125q0.640625 -0.703125 2.390625 -1.046875q2.078125 -0.421875 2.6875 -0.59375q0.625 -0.171875 1.328125 -0.4375q0 -0.6875 -0.28125 -0.953125q-0.28125 -0.28125 -1.0 -0.28125q-0.90625 0 -1.359375 0.296875q-0.359375 0.21875 -0.578125 0.84375zm3.21875 1.953125q-0.765625 0.28125 -1.59375 0.484375q-1.140625 0.296875 -1.4375 0.59375q-0.3125 0.296875 -0.3125 0.6875q0 0.4375 0.296875 0.71875q0.3125 0.265625 0.90625 0.265625q0.625 0 1.15625 -0.296875q0.53125 -0.296875 0.75 -0.734375q0.234375 -0.4375 0.234375 -1.125l0 -0.59375zm5.9747925 -8.765625l3.71875 0l0 13.359375l-3.71875 0l0 -13.359375zm10.5564575 0l0 3.6875l2.046875 0l0 2.703125l-2.046875 0l0 3.4375q0 0.609375 0.125 0.8125q0.171875 0.3125 0.625 0.3125q0.421875 0 1.15625 -0.234375l0.265625 2.5625q-1.375 0.296875 -2.5625 0.296875q-1.390625 0 -2.046875 -0.34375q-0.65625 -0.359375 -0.96875 -1.078125q-0.3125 -0.734375 -0.3125 -2.359375l0 -3.40625l-1.359375 0l0 -2.703125l1.359375 0l0 -1.78125l3.71875 -1.90625zm2.7336426 3.6875l3.921875 0l1.984375 6.4375l1.859375 -6.4375l3.640625 0l-3.828125 10.34375q-0.65625 1.765625 -1.34375 2.375q-0.96875 0.875 -2.9375 0.875q-0.796875 0 -2.484375 -0.21875l-0.28125 -2.578125q0.796875 0.25 1.78125 0.25q0.65625 0 1.0625 -0.296875q0.40625 -0.296875 0.6875 -1.078125l-4.0625 -9.671875zm18.899017 -3.6875l5.4219055 0l2.09375 8.125l2.09375 -8.125l5.40625 0l0 13.359375l-3.375 0l0 -10.1875l-2.609375 10.1875l-3.046875 0l-2.6094055 -10.1875l0 10.1875l-3.375 0l0 -13.359375zm16.952423 8.546875q0 -2.203125 1.484375 -3.640625q1.5 -1.4375 4.03125 -1.4375q2.90625 0 4.390625 1.6875q1.203125 1.359375 1.203125 3.34375q0 2.234375 -1.484375 3.65625q-1.484375 1.421875 -4.09375 1.421875q-2.328125 0 -3.765625 -1.1875q-1.765625 -1.46875 -1.765625 -3.84375zm3.703125 0q0 1.28125 0.515625 1.90625q0.53125 0.625 1.328125 0.625q0.796875 0 1.3125 -0.609375q0.515625 -0.609375 0.515625 -1.96875q0 -1.25 -0.515625 -1.859375q-0.515625 -0.625 -1.28125 -0.625q-0.8125 0 -1.34375 0.625q-0.53125 0.625 -0.53125 1.90625zm8.0841675 -4.859375l3.859375 0l1.875 6.125l1.953125 -6.125l3.734375 0l-4.109375 9.671875l-3.28125 0l-4.03125 -9.671875zm23.239746 5.75l-7.4375 0q0.109375 0.890625 0.484375 1.328125q0.546875 0.640625 1.40625 0.640625q0.546875 0 1.03125 -0.28125q0.3125 -0.171875 0.65625 -0.609375l3.65625 0.34375q-0.84375 1.453125 -2.03125 2.09375q-1.1875 0.625 -3.390625 0.625q-1.921875 0 -3.03125 -0.53125q-1.09375 -0.546875 -1.828125 -1.71875q-0.71875 -1.1875 -0.71875 -2.78125q0 -2.28125 1.453125 -3.671875q1.453125 -1.40625 4.015625 -1.40625q2.078125 0 3.28125 0.625q1.203125 0.625 1.828125 1.828125q0.625 1.1875 0.625 3.09375l0 0.421875zm-3.765625 -1.765625q-0.109375 -1.078125 -0.578125 -1.546875q-0.46875 -0.46875 -1.234375 -0.46875q-0.890625 0 -1.421875 0.703125q-0.328125 0.4375 -0.421875 1.3125l3.65625 0zm4.8185425 3.015625l3.671875 -0.359375q0.234375 0.65625 0.640625 0.953125q0.40625 0.28125 1.09375 0.28125q0.75 0 1.15625 -0.328125q0.3125 -0.234375 0.3125 -0.59375q0 -0.390625 -0.40625 -0.609375q-0.3125 -0.15625 -1.59375 -0.390625q-1.9375 -0.328125 -2.6875 -0.609375q-0.75 -0.296875 -1.265625 -0.984375q-0.515625 -0.6875 -0.515625 -1.5625q0 -0.953125 0.546875 -1.640625q0.5625 -0.6875 1.53125 -1.03125q0.984375 -0.34375 2.625 -0.34375q1.734375 0 2.546875 0.265625q0.828125 0.265625 1.375 0.828125q0.5625 0.546875 0.921875 1.484375l-3.515625 0.359375q-0.140625 -0.46875 -0.453125 -0.6875q-0.4375 -0.296875 -1.0625 -0.296875q-0.625 0 -0.921875 0.234375q-0.28125 0.21875 -0.28125 0.53125q0 0.359375 0.375 0.546875q0.359375 0.171875 1.578125 0.328125q1.84375 0.203125 2.75 0.578125q0.90625 0.375 1.375 1.0625q0.484375 0.6875 0.484375 1.515625q0 0.84375 -0.515625 1.640625q-0.5 0.796875 -1.59375 1.265625q-1.078125 0.46875 -2.953125 0.46875q-2.65625 0 -3.78125 -0.75q-1.125 -0.765625 -1.4375 -2.15625z" fill-rule="nonzero"/></g></svg>